<svg width="1200" height="520" viewBox="0 0 1200 520" fill="none" xmlns="http://www.w3.org/2000/svg">
  <defs>
    <linearGradient id="bg" x1="0" y1="0" x2="1200" y2="520" gradientUnits="userSpaceOnUse">
      <stop stop-color="#020617"/>
      <stop offset="0.52" stop-color="#0B1120"/>
      <stop offset="1" stop-color="#082F49"/>
    </linearGradient>
    <linearGradient id="accent" x1="80" y1="66" x2="1070" y2="450" gradientUnits="userSpaceOnUse">
      <stop stop-color="#38BDF8"/>
      <stop offset="0.5" stop-color="#2DD4BF"/>
      <stop offset="1" stop-color="#F59E0B"/>
    </linearGradient>
    <filter id="blur" x="-70" y="-70" width="1340" height="660" filterUnits="userSpaceOnUse">
      <feGaussianBlur stdDeviation="28"/>
    </filter>
    <pattern id="grid" width="34" height="34" patternUnits="userSpaceOnUse">
      <path d="M 34 0 L 0 0 0 34" fill="none" stroke="#94A3B8" stroke-opacity="0.09" stroke-width="1"/>
    </pattern>
  </defs>

  <rect width="1200" height="520" rx="34" fill="url(#bg)"/>
  <rect width="1200" height="520" rx="34" fill="url(#grid)"/>
  <g filter="url(#blur)" opacity="0.55">
    <circle cx="220" cy="110" r="95" fill="#2563EB"/>
    <circle cx="980" cy="130" r="105" fill="#14B8A6"/>
    <circle cx="650" cy="460" r="110" fill="#F59E0B"/>
  </g>

  <text x="64" y="72" fill="#E0F2FE" font-family="Inter, Segoe UI, Arial, sans-serif" font-size="22" font-weight="700" letter-spacing="4">PROFILE SNAPSHOT</text>
  <text x="64" y="124" fill="#FFFFFF" font-family="Inter, Segoe UI, Arial, sans-serif" font-size="48" font-weight="850">I can build complete products end-to-end.</text>
  <text x="64" y="164" fill="#BAE6FD" font-family="Inter, Segoe UI, Arial, sans-serif" font-size="20" font-weight="500">The projects below are proof points from real work, not the limit of what I can build.</text>

  <path d="M88 230C206 190 291 197 397 236C509 277 606 338 734 304C846 275 918 193 1098 221" stroke="url(#accent)" stroke-width="3" stroke-linecap="round" opacity="0.65"/>

  <g font-family="Inter, Segoe UI, Arial, sans-serif">
    <g>
      <rect x="64" y="214" width="322" height="98" rx="22" fill="#0F172A" fill-opacity="0.88" stroke="#38BDF8" stroke-opacity="0.35"/>
      <text x="92" y="252" fill="#E0F2FE" font-size="20" font-weight="800">Product Thinking</text>
      <text x="92" y="282" fill="#CBD5E1" font-size="16">Turn ideas into usable workflows,</text>
      <text x="92" y="304" fill="#CBD5E1" font-size="16">features, data models, and screens.</text>
    </g>
    <g>
      <rect x="439" y="214" width="322" height="98" rx="22" fill="#0F172A" fill-opacity="0.88" stroke="#2DD4BF" stroke-opacity="0.35"/>
      <text x="467" y="252" fill="#CCFBF1" font-size="20" font-weight="800">Engineering Systems</text>
      <text x="467" y="282" fill="#CBD5E1" font-size="16">Build APIs, dashboards, mobile apps,</text>
      <text x="467" y="304" fill="#CBD5E1" font-size="16">admin panels, and integrations.</text>
    </g>
    <g>
      <rect x="814" y="214" width="322" height="98" rx="22" fill="#0F172A" fill-opacity="0.88" stroke="#F59E0B" stroke-opacity="0.35"/>
      <text x="842" y="252" fill="#FEF3C7" font-size="20" font-weight="800">Launch-Ready Delivery</text>
      <text x="842" y="282" fill="#CBD5E1" font-size="16">Connect auth, payments, realtime,</text>
      <text x="842" y="304" fill="#CBD5E1" font-size="16">notifications, content, and ops.</text>
    </g>
  </g>

  <g font-family="Inter, Segoe UI, Arial, sans-serif" font-size="16" font-weight="700">
    <rect x="64" y="366" width="142" height="48" rx="16" fill="#082F49" stroke="#38BDF8" stroke-opacity="0.45"/>
    <text x="100" y="396" fill="#BAE6FD">Web Apps</text>
    <rect x="226" y="366" width="142" height="48" rx="16" fill="#042F2E" stroke="#2DD4BF" stroke-opacity="0.45"/>
    <text x="266" y="396" fill="#CCFBF1">APIs</text>
    <rect x="388" y="366" width="142" height="48" rx="16" fill="#312E81" stroke="#A78BFA" stroke-opacity="0.45"/>
    <text x="427" y="396" fill="#EDE9FE">Mobile</text>
    <rect x="550" y="366" width="142" height="48" rx="16" fill="#422006" stroke="#F59E0B" stroke-opacity="0.45"/>
    <text x="584" y="396" fill="#FEF3C7">Admin</text>
    <rect x="712" y="366" width="142" height="48" rx="16" fill="#052E16" stroke="#22C55E" stroke-opacity="0.45"/>
    <text x="748" y="396" fill="#DCFCE7">Payments</text>
    <rect x="874" y="366" width="142" height="48" rx="16" fill="#1E1B4B" stroke="#818CF8" stroke-opacity="0.45"/>
    <text x="908" y="396" fill="#E0E7FF">Realtime</text>
    <rect x="1036" y="366" width="100" height="48" rx="16" fill="#172554" stroke="#60A5FA" stroke-opacity="0.45"/>
    <text x="1060" y="396" fill="#DBEAFE">CMS</text>
  </g>

  <text x="64" y="470" fill="#94A3B8" font-family="Inter, Segoe UI, Arial, sans-serif" font-size="15" font-weight="600">Selected work: B2B auctions, live commerce, marketplaces, scanner apps, hospitality sites, service booking, healthcare content, and booking systems.</text>
</svg>
